<?xml version="1.0" encoding="UTF-8"?>
<svg width="207px" height="249px" viewBox="0 0 207 249" version="1.1" xmlns="http://www.w3.org/2000/svg" xmlns:xlink="http://www.w3.org/1999/xlink">
    <!-- Generator: Sketch 49.3 (51167) - http://www.bohemiancoding.com/sketch -->
    <title>Group</title>
    <desc>Created with Sketch.</desc>
    <defs>
        <linearGradient x1="50%" y1="0%" x2="50%" y2="98.3816964%" id="linearGradient-1">
            <stop stop-color="#1469D1" offset="0%"></stop>
            <stop stop-color="#1469D1" stop-opacity="0" offset="100%"></stop>
        </linearGradient>
    </defs>
    <g id="Page-1" stroke="none" stroke-width="1" fill="none" fill-rule="evenodd">
        <g id="6-绑定失败" transform="translate(-297.000000, -412.000000)">
            <g id="Group" transform="translate(275.000000, 412.000000)">
                <rect id="Rectangle-6" x="0" y="0" width="250" height="250"></rect>
                <g id="手掌扫描" transform="translate(22.000000, 0.000000)">
                    <path d="M34,117 L34,60.3019514 C34,55.9061161 37.5701712,52.3384817 41.9762538,52.3384817 C46.3823364,52.3384817 49.9525076,55.9061161 49.9525076,60.3019514 L49.9525076,113.561637 C49.9525076,115.313601 51.3818522,116.747025 53.1430091,116.747025 C54.9041659,116.747025 56.3335106,115.313601 56.3335106,113.561637 L56.3335106,30.7415516 C56.3335106,25.4538077 60.6183541,21.1853879 65.9050151,21.1853879 C71.1916761,21.1853879 75.4765197,25.4538077 75.4765197,30.7415516 L75.4765197,104.005474 C75.4765197,105.757437 76.9058643,107.190861 78.6670212,107.190861 C80.428178,107.190861 81.8575227,105.757437 81.8575227,104.005474 L81.8575227,27.5561637 C81.8575227,22.2684198 86.1423662,18 91.4290272,18 C96.7156882,18 101.000532,22.2684198 101.000532,27.5561637 L101.000532,104.005474 C101.000532,105.757437 102.429876,107.190861 104.191033,107.190861 C105.95219,107.190861 107.381535,105.757437 107.381535,104.005474 L107.381535,37.1123275 C107.381535,31.8245835 111.666378,27.5561637 116.953039,27.5561637 C122.2397,27.5561637 126.524544,31.8245835 126.524544,37.1123275 L126.524544,117 L34,117 Z M142.19189,117 C146.988796,110.594195 155.923887,101.123775 164.762704,104.769967 C164.762704,104.769967 171.59564,107.399553 165.40743,117 L142.19189,117 Z" id="Combined-Shape" stroke="#1349AB" stroke-width="2" opacity="0.67" stroke-linecap="round" stroke-dasharray="6"></path>
                    <path d="M34,113 L49.9525076,113 L49.9525076,113.561637 C49.9525076,115.313601 51.3818522,116.747025 53.1430091,116.747025 C54.9041659,116.747025 56.3335106,115.313601 56.3335106,113.561637 L56.3335106,113 L126.524544,113 L126.524544,120.792468 C127.886888,126.398751 131.093342,131.782056 138.610164,122.321454 C138.610164,122.321454 141.306026,117.63683 145.459325,113 L167.428044,113 C166.93633,114.419299 166.092174,116.062105 164.762704,117.957473 C164.762704,117.957473 151.850745,131.367956 142.968389,157.456283 C142.968389,157.456283 134.015841,205.778617 90.6633069,205.778617 C90.6633069,205.778617 34,211.735293 34,161.852118 L34,113 Z" id="Combined-Shape" stroke="#1469D1" stroke-width="2" fill="#1469D1" opacity="0.669553895"></path>
                    <g id="Group-18" transform="translate(128.000000, 167.000000)">
                        <circle id="Oval" fill="#ED6347" cx="39.5" cy="39.5" r="39.5"></circle>
                        <g id="✘" transform="translate(24.307692, 24.307692)" stroke="#FFFFFF" stroke-linecap="round" stroke-linejoin="round" stroke-width="5">
                            <path d="M0.59397917,0.550066313 L31.0489578,31.0477588" id="Line-Copy" transform="translate(15.974265, 15.951923) scale(-1, 1) translate(-15.974265, -15.951923) "></path>
                            <path d="M0.549295912,0.550066313 L31.0042745,31.0477588" id="Line-Copy"></path>
                        </g>
                    </g>
                    <g id="扫描" transform="translate(7.000000, 3.000000)">
                        <rect id="Rectangle-2" fill="#FFFFFF" transform="translate(87.000000, 112.000000) scale(1, -1) translate(-87.000000, -112.000000) " x="0" y="109" width="174" height="6"></rect>
                        <rect id="Rectangle-2-Copy" fill-opacity="0.840000033" fill="#1469D1" transform="translate(87.000000, 112.000000) scale(1, -1) translate(-87.000000, -112.000000) " x="0" y="109" width="174" height="6"></rect>
                        <rect id="Rectangle-3" fill="url(#linearGradient-1)" opacity="0.5" transform="translate(87.000000, 54.500000) scale(1, -1) translate(-87.000000, -54.500000) " x="0" y="0" width="174" height="109"></rect>
                    </g>
                    <path d="M5.4,196 L5.4,219.349817 C5.4,233.01798 16.5023543,244.1 30.2,244.1 L48,244.1 C49.3254834,244.1 50.4,245.174517 50.4,246.5 C50.4,247.825483 49.3254834,248.9 48,248.9 L30.2,248.9 C13.8533553,248.9 0.6,235.670918 0.6,219.349817 L0.6,196 C0.6,194.674517 1.6745166,193.6 3,193.6 C4.3254834,193.6 5.4,194.674517 5.4,196 Z M5.4,53.5 C5.4,54.8254834 4.3254834,55.9 3,55.9 C1.6745166,55.9 0.6,54.8254834 0.6,53.5 L0.6,30.1501832 C0.6,13.8290818 13.8533553,0.6 30.2,0.6 L48,0.6 C49.3254834,0.6 50.4,1.6745166 50.4,3 C50.4,4.3254834 49.3254834,5.4 48,5.4 L30.2,5.4 C16.5023543,5.4 5.4,16.4820203 5.4,30.1501832 L5.4,53.5 Z M138,5.4 C136.674517,5.4 135.6,4.3254834 135.6,3 C135.6,1.6745166 136.674517,0.6 138,0.6 L155.8,0.6 C172.146645,0.6 185.4,13.8290818 185.4,30.1501832 L185.4,53.5 C185.4,54.8254834 184.325483,55.9 183,55.9 C181.674517,55.9 180.6,54.8254834 180.6,53.5 L180.6,30.1501832 C180.6,16.4820203 169.497646,5.4 155.8,5.4 L138,5.4 Z" id="Combined-Shape" fill="#1469D1" fill-rule="nonzero"></path>
                </g>
            </g>
        </g>
    </g>
</svg>