<?xml version="1.0" encoding="UTF-8"?>
<svg width="246px" height="193px" viewBox="0 0 246 193" version="1.1" xmlns="http://www.w3.org/2000/svg" xmlns:xlink="http://www.w3.org/1999/xlink">
    <!-- Generator: Sketch 49.3 (51167) - http://www.bohemiancoding.com/sketch -->
    <title>Group 3 Copy</title>
    <desc>Created with Sketch.</desc>
    <defs></defs>
    <g id="Page-1" stroke="none" stroke-width="1" fill="none" fill-rule="evenodd">
        <g id="9-网络异常" transform="translate(-277.000000, -433.000000)">
            <g id="Group-3-Copy" transform="translate(274.000000, 405.000000)">
                <g id="Group-5">
                    <rect id="Rectangle" x="0" y="0" width="250" height="250"></rect>
                    <g id="Group-4" transform="translate(3.000000, 28.000000)">
                        <path d="M189.597363,97.4850279 C193.747767,101.128651 194.158595,107.446958 190.514972,111.597363 C186.871349,115.747767 180.553042,116.158595 176.402637,112.514972 C162.297828,100.132419 143.089477,93 122.5,93 C101.910523,93 82.7021721,100.132419 68.5973627,112.514972 C64.4469583,116.158595 58.1286508,115.747767 54.4850279,111.597363 C50.8414051,107.446958 51.2522328,101.128651 55.4026373,97.4850279 C73.1819135,81.8766753 97.0877308,73 122.5,73 C147.912269,73 171.818087,81.8766753 189.597363,97.4850279 Z" id="Oval-2" fill="#6191CB" fill-rule="nonzero"></path>
                        <path d="M240.998298,43.8181377 C247.17387,49.340045 247.70377,58.8227256 242.181862,64.9982976 C236.659955,71.1738697 227.177274,71.7037696 221.001702,66.1818623 C195.306001,43.2059694 160.387578,30 123,30 C85.6124217,30 50.6939991,43.2059694 24.9982976,66.1818623 C18.8227256,71.7037696 9.34004501,71.1738697 3.8181377,64.9982976 C-1.7037696,58.8227256 -1.17386965,49.340045 5.00170237,43.8181377 C36.2230462,15.9014741 78.268759,0 123,0 C167.731241,0 209.776954,15.9014741 240.998298,43.8181377 Z" id="Oval-2-Copy" fill="#EEF2F9" fill-rule="nonzero"></path>
                        <g id="Group" transform="translate(95.000000, 136.000000)">
                            <path d="M28.5106772,24.8527679 L17.9061638,14.2482546 C16.8960601,13.2381508 15.2583583,13.2381508 14.2482546,14.2482546 C13.2381508,15.2583583 13.2381508,16.8960601 14.2482546,17.9061638 L24.8527679,28.5106772 L14.2482546,39.1151906 C13.2381508,40.1252943 13.2381508,41.7629961 14.2482546,42.7730999 C15.2583583,43.7832036 16.8960601,43.7832036 17.9061638,42.7730999 L28.5106772,32.1685865 L39.1151906,42.7730999 C40.1252943,43.7832036 41.7629961,43.7832036 42.7730999,42.7730999 C43.7832036,41.7629961 43.7832036,40.1252943 42.7730999,39.1151906 L32.1685865,28.5106772 L42.7730999,17.9061638 C43.7832036,16.8960601 43.7832036,15.2583583 42.7730999,14.2482546 C41.7629961,13.2381508 40.1252943,13.2381508 39.1151906,14.2482546 L28.5106772,24.8527679 Z M28.1715728,56.3431456 C12.6128428,56.3431456 0,43.7303028 0,28.1715728 C0,12.6128428 12.6128428,0 28.1715728,0 C43.7303028,0 56.3431456,12.6128428 56.3431456,28.1715728 C56.3431456,43.7303028 43.7303028,56.3431456 28.1715728,56.3431456 Z" id="Combined-Shape" fill="#1469D1"></path>
                            <g id="Group-2" transform="translate(13.490677, 13.490677)"></g>
                        </g>
                    </g>
                </g>
            </g>
        </g>
    </g>
</svg>