<?xml version="1.0" encoding="UTF-8"?>
<svg width="206px" height="248px" viewBox="0 0 206 248" version="1.1" xmlns="http://www.w3.org/2000/svg" xmlns:xlink="http://www.w3.org/1999/xlink">
    <!-- Generator: Sketch 49.3 (51167) - http://www.bohemiancoding.com/sketch -->
    <title>扫描成功</title>
    <desc>Created with Sketch.</desc>
    <defs>
        <linearGradient x1="50%" y1="0%" x2="50%" y2="98.3816964%" id="linearGradient-1">
            <stop stop-color="#1469D1" offset="0%"></stop>
            <stop stop-color="#1469D1" stop-opacity="0" offset="100%"></stop>
        </linearGradient>
    </defs>
    <g id="Page-1" stroke="none" stroke-width="1" fill="none" fill-rule="evenodd">
        <g id="5-绑定成功" transform="translate(-297.000000, -412.000000)">
            <g id="扫描成功" transform="translate(275.000000, 411.000000)">
                <rect id="Rectangle-5" x="0" y="0" width="250" height="250"></rect>
                <path d="M27.4,54.5 C27.4,55.8254834 26.3254834,56.9 25,56.9 C23.6745166,56.9 22.6,55.8254834 22.6,54.5 L22.6,31.1501832 C22.6,14.8290818 35.8533553,1.6 52.2,1.6 L70,1.6 C71.3254834,1.6 72.4,2.6745166 72.4,4 C72.4,5.3254834 71.3254834,6.4 70,6.4 L52.2,6.4 C38.5023543,6.4 27.4,17.4820203 27.4,31.1501832 L27.4,54.5 Z M160,6.4 C158.674517,6.4 157.6,5.3254834 157.6,4 C157.6,2.6745166 158.674517,1.6 160,1.6 L177.8,1.6 C194.146645,1.6 207.4,14.8290818 207.4,31.1501832 L207.4,54.5 C207.4,55.8254834 206.325483,56.9 205,56.9 C203.674517,56.9 202.6,55.8254834 202.6,54.5 L202.6,31.1501832 C202.6,17.4820203 191.497646,6.4 177.8,6.4 L160,6.4 Z M27.4,196 L27.4,219.349817 C27.4,233.01798 38.5023543,244.1 52.2,244.1 L70,244.1 C71.3254834,244.1 72.4,245.174517 72.4,246.5 C72.4,247.825483 71.3254834,248.9 70,248.9 L52.2,248.9 C35.8533553,248.9 22.6,235.670918 22.6,219.349817 L22.6,196 C22.6,194.674517 23.6745166,193.6 25,193.6 C26.3254834,193.6 27.4,194.674517 27.4,196 Z" id="Combined-Shape" fill="#1469D1" fill-rule="nonzero"></path>
                <path d="M163.968389,158.456283 C163.968389,158.456283 155.015841,206.778617 111.663307,206.778617 C111.663307,206.778617 55,212.735293 55,162.852118 L55,61.3019514 C55,56.9061161 58.5701712,53.3384817 62.9762538,53.3384817 C67.3823364,53.3384817 70.9525076,56.9061161 70.9525076,61.3019514 L70.9525076,114.561637 C70.9525076,116.313601 72.3818522,117.747025 74.1430091,117.747025 C75.9041659,117.747025 77.3335106,116.313601 77.3335106,114.561637 L77.3335106,31.7415516 C77.3335106,26.4538077 81.6183541,22.1853879 86.9050151,22.1853879 C92.1916761,22.1853879 96.4765197,26.4538077 96.4765197,31.7415516 L96.4765197,105.005474 C96.4765197,106.757437 97.9058643,108.190861 99.6670212,108.190861 C101.428178,108.190861 102.857523,106.757437 102.857523,105.005474 L102.857523,28.5561637 C102.857523,23.2684198 107.142366,19 112.429027,19 C117.715688,19 122.000532,23.2684198 122.000532,28.5561637 L122.000532,105.005474 C122.000532,106.757437 123.429876,108.190861 125.191033,108.190861 C126.95219,108.190861 128.381535,106.757437 128.381535,105.005474 L128.381535,38.1123275 C128.381535,32.8245835 132.666378,28.5561637 137.953039,28.5561637 C143.2397,28.5561637 147.524544,32.8245835 147.524544,38.1123275 L147.524544,121.792468 C148.886888,127.398751 152.093342,132.782056 159.610164,123.321454 C159.610164,123.321454 172.790125,100.418515 185.762704,105.769967 C185.762704,105.769967 193.046619,108.573108 185.762704,118.957473 C185.762704,118.957473 172.850745,132.367956 163.968389,158.456283 Z" id="Privacy" stroke="#1469D1" stroke-width="2" fill="#1469D1" opacity="0.67"></path>
                <g id="Group-2" transform="translate(149.000000, 167.000000)">
                    <g id="打钩">
                        <circle id="Oval" fill="#50B83C" cx="39.5" cy="39.5" r="39.5"></circle>
                        <g id="Group" transform="translate(16.711538, 24.307692)" stroke="#FFFFFF" stroke-linecap="round" stroke-linejoin="round" stroke-width="5">
                            <path d="M0.554072398,15.8132107 L15.5242842,30.8044186" id="Line"></path>
                            <path d="M15.7862869,0.550066313 L46.2412654,31.0477588" id="Line-Copy" transform="translate(31.166572, 15.951923) scale(-1, 1) translate(-31.166572, -15.951923) "></path>
                        </g>
                    </g>
                </g>
                <g id="扫描" transform="translate(28.000000, 4.000000)">
                    <rect id="Rectangle-2" fill="#FFFFFF" transform="translate(87.000000, 112.000000) scale(1, -1) translate(-87.000000, -112.000000) " x="0" y="109" width="174" height="6"></rect>
                    <rect id="Rectangle-2-Copy" fill-opacity="0.840000033" fill="#1469D1" transform="translate(87.000000, 112.000000) scale(1, -1) translate(-87.000000, -112.000000) " x="0" y="109" width="174" height="6"></rect>
                    <rect id="Rectangle-3" fill="url(#linearGradient-1)" opacity="0.5" transform="translate(87.000000, 54.500000) scale(1, -1) translate(-87.000000, -54.500000) " x="0" y="0" width="174" height="109"></rect>
                </g>
            </g>
        </g>
    </g>
</svg>