<?xml version="1.0" encoding="UTF-8"?>
<svg width="176px" height="199px" viewBox="0 0 176 199" version="1.1" xmlns="http://www.w3.org/2000/svg" xmlns:xlink="http://www.w3.org/1999/xlink">
    <!-- Generator: Sketch 49.3 (51167) - http://www.bohemiancoding.com/sketch -->
    <title>Group 2</title>
    <desc>Created with Sketch.</desc>
    <defs>
        <path d="M138,124 L164,124 C168.418278,124 172,127.581722 172,132 L172,154 C172,158.418278 168.418278,162 164,162 L138,162 C127.50659,162 119,153.49341 119,143 L119,143 C119,132.50659 127.50659,124 138,124 Z" id="path-1"></path>
    </defs>
    <g id="Page-1" stroke="none" stroke-width="1" fill="none" fill-rule="evenodd">
        <g id="9-网络异常" transform="translate(-315.000000, -440.000000)">
            <g id="Group-2" transform="translate(277.000000, 405.000000)">
                <rect id="Rectangle-6" x="0" y="0" width="250" height="250"></rect>
                <g id="Group" transform="translate(37.000000, 28.000000)">
                    <path d="M1,100.2 L1,78.2 C1,67.5961328 9.5961328,59 20.2,59 L125.8,59 C133.542834,59 140.215191,63.58326 143.252073,70.1847826 L17.7923913,70.1847826 C14.7037989,70.1847826 12.2,72.6885815 12.2,75.7771739 C12.2,78.5453475 14.2112446,80.8437698 16.8521591,81.2908661 C7.84432257,82.8747945 1,90.7381087 1,100.2 Z" id="Combined-Shape" fill-opacity="0.67" fill="#1360AB"></path>
                    <path d="M34.3302456,32.3458346 L138.330246,32.3458346 C149.375941,32.3458346 158.330246,41.3001396 158.330246,52.3458346 L158.330246,105.345835 C158.330246,116.39153 149.375941,125.345835 138.330246,125.345835 L34.3302456,125.345835 C23.2845506,125.345835 14.3302456,116.39153 14.3302456,105.345835 L14.3302456,52.3458346 C14.3302456,41.3001396 23.2845506,32.3458346 34.3302456,32.3458346 Z" id="Rectangle-5" stroke="#1349AB" stroke-width="2" fill-opacity="0.109999999" fill="#1349AB" opacity="0.67" stroke-linecap="round" stroke-dasharray="6" transform="translate(86.330246, 78.845835) rotate(-33.000000) translate(-86.330246, -78.845835) "></path>
                    <rect id="Rectangle-Copy" fill="#FFFFFF" x="1" y="81" width="166" height="125" rx="19.2"></rect>
                    <rect id="Rectangle-Copy-3" fill-opacity="0.67" fill="#1360AB" x="1" y="81" width="166" height="125" rx="19.2"></rect>
                    <g id="Rectangle-2">
                        <use fill="#1469D1" fill-rule="evenodd" xlink:href="#path-1"></use>
                        <path stroke="#FFFFFF" stroke-width="4.8" d="M138,121.6 L164,121.6 C169.743761,121.6 174.4,126.256239 174.4,132 L174.4,154 C174.4,159.743761 169.743761,164.4 164,164.4 L138,164.4 C126.181106,164.4 116.6,154.818894 116.6,143 C116.6,131.181106 126.181106,121.6 138,121.6 Z"></path>
                    </g>
                    <circle id="Oval" fill="#FFFFFF" cx="142" cy="143" r="8"></circle>
                </g>
            </g>
        </g>
    </g>
</svg>